PathFileType	4	(X/Y/Z)	/Users/itak/Documents/Research/Walk-IL/dataset/trc/00504_00183.trc
DataRate	CameraRate	NumFrames	NumMarkers	Units	OrigDataRate	OrigDataStartFrame	OrigNumFrames
100.000000	100.000000	4	53	mm	100.000000	629	719
Frame#	Time	RPSI			LPSI			L3			STRN			T10			C7			CLAV			RBAK			LBAK			LSHO			LUPA			LAEL			LAOL			LWTS			LWPS			LFRA			LIFD			LHPS			LHTS			RSHO			RUPA			RAEL			RAOL			RWTS			RWPS			RFRA			RIFD			RHTS			RHPS			RBHD			LFHD			RFHD			LBHD			LHIP			RHIP			RASI			LASI			LKNE			LTHI			LANK			LTIP			LTOE			LMT1			LMT5			LHEE			RKNE			RTHI			RANK			RTIP			RTOE			RMT1			RMT5			RHEE			
		X1	Y1	Z1	X2	Y2	Z2	X3	Y3	Z3	X4	Y4	Z4	X5	Y5	Z5	X6	Y6	Z6	X7	Y7	Z7	X8	Y8	Z8	X9	Y9	Z9	X10	Y10	Z10	X11	Y11	Z11	X12	Y12	Z12	X13	Y13	Z13	X14	Y14	Z14	X15	Y15	Z15	X16	Y16	Z16	X17	Y17	Z17	X18	Y18	Z18	X19	Y19	Z19	X20	Y20	Z20	X21	Y21	Z21	X22	Y22	Z22	X23	Y23	Z23	X24	Y24	Z24	X25	Y25	Z25	X26	Y26	Z26	X27	Y27	Z27	X28	Y28	Z28	X29	Y29	Z29	X30	Y30	Z30	X31	Y31	Z31	X32	Y32	Z32	X33	Y33	Z33	X34	Y34	Z34	X35	Y35	Z35	X36	Y36	Z36	X37	Y37	Z37	X38	Y38	Z38	X39	Y39	Z39	X40	Y40	Z40	X41	Y41	Z41	X42	Y42	Z42	X43	Y43	Z43	X44	Y44	Z44	X45	Y45	Z45	X46	Y46	Z46	X47	Y47	Z47	X48	Y48	Z48	X49	Y49	Z49	X50	Y50	Z50	X51	Y51	Z51	X52	Y52	Z52	X53	Y53	Z53	

630	6.29	584.2432250976562	964.5466918945312	405.6006164550781	649.448486328125	962.4984130859375	300.3377075195312	610.5894165039062	1030.262084960938	346.2054443359375	799.7845458984375	1195.736083984375	443.6169738769531	594.390869140625	1134.589111328125	341.2856140136719	628.1859130859375	1365.481323242188	360.1872863769531	767.3355102539062	1290.386352539062	426.7323913574219	548.7008666992188	1243.753784179688	418.0308837890625	644.6851806640625	1310.894775390625	270.9540405273438	761.9415893554688	1357.759643554688	246.67138671875	783.7879028320312	1233.827392578125	185.1681365966797	817.81591796875	1026.115234375	163.7123870849609	722.2410278320312	1011.513488769531	185.1533355712891	889.9517211914062	845.0551147460938	235.9150238037109	847.4940185546875	807.1832275390625	160.6752777099609	839.724853515625	946.226806640625	168.6174621582031	903.1802368164062	688.4446411132812	242.5289306640625	871.0606079101562	754.9107055664062	176.2554016113281	914.7637329101562	769.5475463867188	222.5034332275391	614.2827758789062	1360.846923828125	518.5972290039062	575.5567626953125	1293.903930664062	564.187255859375	565.4413452148438	1026.328857421875	610.0980834960938	533.3129272460938	1009.344848632812	553.9319458007812	676.6068115234375	827.4451293945312	624.8911743164062	588.6399536132812	803.3726196289062	637.3154296875	568.32275390625	972.1636962890625	619.06201171875	683.17529296875	668.4340209960938	628.9152221679688	683.294189453125	734.7884521484375	654.2708129882812	612.3047485351562	730.4083251953125	648.3087158203125	609.96630859375	1513.186401367188	433.9894104003906	784.9594116210938	1594.296020507812	380.4720153808594	713.4973754882812	1589.237915039062	485.5059204101562	689.068115234375	1513.2470703125	294.5292358398438	793.7118530273438	886.20849609375	235.8030548095703	617.1201171875	866.4357299804688	569.4092407226562	731.9786987304688	914.8112182617188	561.5509643554688	850.8740234375	922.92724609375	350.0368041992188	790.1906127929688	465.98193359375	284.2884826660156	817.0931396484375	623.3175659179688	271.0798034667969	681.5626220703125	47.94718933105469	234.0120086669922	758.7319946289062	315.61962890625	263.3209838867188	824.3314819335938	29.72822761535645	384.4169616699219	740.06396484375	35.30546569824219	371.9419860839844	781.0368041992188	38.40465927124023	278.3728332519531	610.8892211914062	42.22954177856445	265.2187805175781	657.3648071289062	482.1387939453125	564.9931640625	641.7826538085938	741.513916015625	588.2661743164062	602.5899658203125	45.79335403442383	526.6675415039062	667.8089599609375	336.9960327148438	558.091796875	801.4102172851562	34.25971221923828	579.2771606445312	758.747314453125	40.1039924621582	516.5667114257812	696.7959594726562	37.70036315917969	591.112060546875	578.1470336914062	36.92829132080078	461.1167907714844	
631	6.3	584.8748168945312	964.5235595703125	408.2997741699219	650.1063842773438	962.3515014648438	302.9629821777344	610.969970703125	1029.907836914062	348.7010498046875	800.1768798828125	1195.717529296875	445.7476501464844	594.6034545898438	1134.30810546875	343.6707763671875	628.2809448242188	1365.213623046875	362.4381408691406	767.6310424804688	1290.319702148438	428.8003234863281	549.0825805664062	1243.474853515625	420.5186767578125	644.6818237304688	1310.560791015625	273.2496643066406	761.8732299804688	1357.452270507812	248.6107177734375	783.2503051757812	1233.393798828125	187.1685180664062	816.1103515625	1025.511108398438	165.6167144775391	720.5852661132812	1011.376220703125	187.8088684082031	887.2553100585938	843.4479370117188	237.0211029052734	843.875244140625	806.118896484375	162.0352630615234	837.4739990234375	945.246337890625	170.2396392822266	898.9366455078125	686.7115478515625	243.3701629638672	867.0006713867188	753.5740966796875	177.37548828125	911.2278442382812	767.7069091796875	223.3573760986328	614.6643676757812	1360.759399414062	520.862060546875	576.0820922851562	1293.793701171875	566.5980834960938	566.540771484375	1026.2109375	612.6671142578125	534.2178344726562	1009.170959472656	556.65234375	677.84423828125	827.2402954101562	627.0034790039062	589.8867797851562	803.1866455078125	639.646484375	569.5294799804688	972.024169921875	621.6206665039062	684.3223266601562	668.2072143554688	630.745849609375	684.5332641601562	734.5234375	656.205078125	613.4263916015625	730.1567993164062	650.7786254882812	610.1253662109375	1513.175415039062	435.8364868164062	785.1336059570312	1594.058959960938	382.0811462402344	713.7034912109375	1589.268920898438	487.1439514160156	689.1390991210938	1512.837036132812	296.3588256835938	797.2440185546875	886.3684692382812	239.5551605224609	618.6103515625	866.15234375	572.0994873046875	732.8881225585938	914.7525634765625	564.1614990234375	851.5597534179688	922.8355712890625	352.5245056152344	790.4782104492188	466.0420532226562	285.5858154296875	817.480224609375	623.3408203125	272.9555053710938	681.5248413085938	48.10679626464844	234.083251953125	758.8502807617188	315.8509826660156	264.0833740234375	824.407958984375	29.80124664306641	384.3326721191406	740.1196899414062	35.3327522277832	371.9673461914062	781.0704345703125	38.38923263549805	278.3803100585938	610.9063720703125	42.41360855102539	265.323974609375	655.4395141601562	481.7516174316406	567.051025390625	641.7716674804688	741.510498046875	590.91552734375	602.342041015625	45.41921615600586	526.8694458007812	665.9118041992188	336.764404296875	558.8226928710938	801.3157348632812	34.29288864135742	579.3306274414062	758.6300659179688	40.28690338134766	516.5545043945312	696.6471557617188	37.56473922729492	591.20556640625	577.935546875	36.39680862426758	461.2353515625	
632	6.31	585.4608154296875	964.5089721679688	410.944091796875	650.7393188476562	962.2180786132812	305.534912109375	611.3642578125	1029.563354492188	351.1342163085938	800.5473022460938	1195.683837890625	447.8469848632812	594.831787109375	1134.02685546875	345.9844970703125	628.3759155273438	1364.949584960938	364.6327209472656	767.9175415039062	1290.248168945312	430.8344116210938	549.4378051757812	1243.192749023438	422.9368591308594	644.6908569335938	1310.231323242188	275.4898376464844	761.8162841796875	1357.14599609375	250.5174407958984	782.7579345703125	1232.96435546875	189.1471710205078	814.4573974609375	1024.91845703125	167.5335998535156	718.9888305664062	1011.251281738281	190.4280853271484	884.5599365234375	841.8680419921875	238.2064971923828	840.294921875	805.0681762695312	163.4597473144531	835.2582397460938	944.2786865234375	171.8925476074219	894.6390380859375	685.007080078125	244.3396911621094	862.9598999023438	752.2582397460938	178.5949554443359	907.6724243164062	765.8851928710938	224.3258514404297	615.0224609375	1360.657836914062	523.0704345703125	576.5615844726562	1293.669799804688	568.9409790039062	567.5848999023438	1026.088012695312	615.1925048828125	535.0718994140625	1008.983337402344	559.3213500976562	679.0462036132812	827.0729370117188	629.1004638671875	591.1231079101562	803.0178833007812	641.9871215820312	570.66796875	971.87890625	624.143798828125	685.4879760742188	668.0193481445312	632.63916015625	685.772705078125	734.315185546875	658.1787109375	614.5864868164062	729.9217529296875	653.2472534179688	610.2622680664062	1513.1484375	437.6502380371094	785.2809448242188	1593.828247070312	383.6525573730469	713.8773803710938	1589.301147460938	488.7507629394531	689.1968383789062	1512.455078125	298.157958984375	800.4933471679688	886.53076171875	243.1807708740234	619.9761352539062	865.8953857421875	574.7238159179688	733.7276611328125	914.6666870117188	566.739013671875	852.2025146484375	922.7206420898438	354.9863586425781	790.7266845703125	466.1061401367188	286.8348999023438	817.8544311523438	623.3761596679688	274.785888671875	681.4855346679688	48.26255416870117	234.1534271240234	758.96484375	316.0869140625	264.8207702636719	824.4867553710938	29.88156700134277	384.2434387207031	740.1627197265625	35.35732650756836	371.9966125488281	781.091552734375	38.36975479125977	278.3905029296875	610.9216918945312	42.59992218017578	265.4310913085938	653.4359741210938	481.407470703125	568.9351196289062	641.4564208984375	741.538818359375	593.5894775390625	602.102294921875	45.09294509887695	527.0712280273438	663.95703125	336.5834045410156	559.5654907226562	801.2142944335938	34.34268188476562	579.4024047851562	758.50830078125	40.49113082885742	516.5510864257812	696.4948120117188	37.43750381469727	591.3086547851562	577.6918334960938	35.94129943847656	461.3544616699219	
633	6.32	586.0136108398438	964.5011596679688	413.5382080078125	651.347900390625	962.1069946289062	308.0579833984375	611.7613525390625	1029.21923828125	353.513916015625	800.9022827148438	1195.638427734375	449.9137268066406	595.0638427734375	1133.738037109375	348.2425842285156	628.4730834960938	1364.685913085938	366.7674865722656	768.196044921875	1290.1728515625	432.8314514160156	549.767578125	1242.907836914062	425.2912902832031	644.7086181640625	1309.897827148438	277.6730041503906	761.7631225585938	1356.83740234375	252.3870239257812	782.3034057617188	1232.533447265625	191.0960540771484	812.8610229492188	1024.333618164062	169.458251953125	717.4578857421875	1011.128662109375	193.0085601806641	881.884765625	840.317626953125	239.4694213867188	836.7697143554688	804.0294799804688	164.9446105957031	833.0896606445312	943.3218994140625	173.5759429931641	890.3145141601562	683.3340454101562	245.4317932128906	858.9603881835938	750.9617919921875	179.9109497070312	904.119384765625	764.086669921875	225.4031524658203	615.3613891601562	1360.546142578125	525.2213745117188	577.0028686523438	1293.539428710938	571.2177734375	568.5823974609375	1025.961669921875	617.6709594726562	535.88916015625	1008.786865234375	561.9278564453125	680.2123413085938	826.943603515625	631.173828125	592.3472900390625	802.8674926757812	644.3333740234375	571.7396240234375	971.7325439453125	626.6265258789062	686.6641845703125	667.872314453125	634.592041015625	687.015625	734.1646728515625	660.1813354492188	615.7879638671875	729.7083740234375	655.6889038085938	610.3757934570312	1513.100463867188	439.4266662597656	785.4021606445312	1593.604370117188	385.1869506835938	714.0213012695312	1589.328369140625	490.3264465332031	689.2463989257812	1512.104614257812	299.91650390625	803.3236694335938	886.695556640625	246.6288604736328	621.1866455078125	865.6702270507812	577.27685546875	734.499755859375	914.5440063476562	569.2840576171875	852.805419921875	922.58251953125	357.4223327636719	790.931396484375	466.1746215820312	288.0200500488281	818.2227783203125	623.4302978515625	276.5630187988281	681.449462890625	48.41047286987305	234.2187194824219	759.0597534179688	316.3249206542969	265.5198974609375	824.5667724609375	29.96974563598633	384.1482543945312	740.20068359375	35.38267517089844	372.0259094238281	781.1007080078125	38.34295272827148	278.3994750976562	610.9360961914062	42.78908538818359	265.5358276367188	651.3582153320312	481.1011352539062	570.6206665039062	640.8994140625	741.5906372070312	596.2522583007812	601.8877563476562	44.80072021484375	527.2490844726562	661.9548950195312	336.4407653808594	560.3036499023438	801.1101684570312	34.40641021728516	579.4867553710938	758.3855590820312	40.69894027709961	516.5616455078125	696.346435546875	37.3221549987793	591.4140625	577.4161987304688	35.55141448974609	461.4626770019531	
